<svg version="1.1" xmlns="http://www.w3.org/2000/svg" xmlns:xlink="http://www.w3.org/1999/xlink" width="1570.87353515625" height="1183"><defs/><g><g transform="translate(-414,-158) scale(1,1)"><rect fill="#C0C0C0" stroke="none" x="887" y="423" width="75.447265625" height="59" opacity="0.2"/></g><g transform="translate(-414,-158) scale(1,1)"><rect fill="#ffffff" stroke="none" x="880" y="416" width="75.447265625" height="59"/></g><g transform="translate(-414,-158) scale(1,1)"><path fill="none" stroke="#000000" d="M 880 416 L 955.447265625 416 L 955.447265625 475 L 880 475 L 880 416 Z Z" stroke-miterlimit="10"/></g><g transform="translate(-414,-158) scale(1,1)"><path fill="none" stroke="#000000" d="M 880 456 L 955.447265625 456" stroke-miterlimit="10"/></g><g transform="translate(-414,-158) scale(1,1)"><path fill="none" stroke="#000000" d="M 880 466 L 955.447265625 466" stroke-miterlimit="10"/></g><g transform="translate(-414,-158) scale(1,1)"><g><path fill="none" stroke="none"/><text fill="#000000" stroke="none" font-family="Arial" font-size="13px" font-style="normal" font-weight="bold" text-decoration="none" x="890.62548828125" y="435.5">Renderer</text></g></g><g transform="translate(-414,-158) scale(1,1)"><g><path fill="none" stroke="none"/><text fill="#000000" stroke="none" font-family="Arial" font-size="13px" font-style="normal" font-weight="normal" text-decoration="none" x="884.5" y="450.5">(from Core)</text></g></g><g transform="translate(-414,-158) scale(1,1)"><rect fill="#C0C0C0" stroke="none" x="879" y="287" width="92.07177734375" height="59" opacity="0.2"/></g><g transform="translate(-414,-158) scale(1,1)"><rect fill="#ffffff" stroke="none" x="872" y="280" width="92.07177734375" height="59"/></g><g transform="translate(-414,-158) scale(1,1)"><path fill="none" stroke="#000000" d="M 872 280 L 964.07177734375 280 L 964.07177734375 339 L 872 339 L 872 280 Z Z" stroke-miterlimit="10"/></g><g transform="translate(-414,-158) scale(1,1)"><path fill="none" stroke="#000000" d="M 872 320 L 964.07177734375 320" stroke-miterlimit="10"/></g><g transform="translate(-414,-158) scale(1,1)"><path fill="none" stroke="#000000" d="M 872 330 L 964.07177734375 330" stroke-miterlimit="10"/></g><g transform="translate(-414,-158) scale(1,1)"><g><path fill="none" stroke="none"/><text fill="#000000" stroke="none" font-family="Arial" font-size="13px" font-style="normal" font-weight="bold" text-decoration="none" x="900.70361328125" y="299.5">Driver</text></g></g><g transform="translate(-414,-158) scale(1,1)"><g><path fill="none" stroke="none"/><text fill="#000000" stroke="none" font-family="Arial" font-size="13px" font-style="normal" font-weight="normal" text-decoration="none" x="876.5" y="314.5">(from Context)</text></g></g><g transform="translate(-414,-158) scale(1,1)"><path fill="none" stroke="#000000" d="M 920 339 L 920 416" stroke-miterlimit="10"/></g><g transform="translate(-414,-158) scale(1,1)"><path fill="#000000" stroke="none" d="M 915.790482243984 405.83732514237585 L 920 416 L 924.209517756016 405.83732514237585 L 920 394"/></g><g transform="translate(-414,-158) scale(1,1)"><path fill="none" stroke="#000000" d="M 915.790482243984 405.83732514237585 L 920 416 L 924.209517756016 405.83732514237585 L 920 394 L 915.790482243984 405.83732514237585" stroke-miterlimit="10"/></g><g transform="translate(-414,-158) scale(1,1)"><g><path fill="none" stroke="none"/><text fill="#000000" stroke="none" font-family="Arial" font-size="13px" font-style="normal" font-weight="normal" text-decoration="none" x="903.5" y="366.5">1</text></g></g><g transform="translate(-414,-158) scale(1,1)"><rect fill="#C0C0C0" stroke="none" x="871" y="855" width="96.41357421875" height="59" opacity="0.2"/></g><g transform="translate(-414,-158) scale(1,1)"><rect fill="#ffffff" stroke="none" x="864" y="848" width="96.41357421875" height="59"/></g><g transform="translate(-414,-158) scale(1,1)"><path fill="none" stroke="#000000" d="M 864 848 L 960.41357421875 848 L 960.41357421875 907 L 864 907 L 864 848 Z Z" stroke-miterlimit="10"/></g><g transform="translate(-414,-158) scale(1,1)"><path fill="none" stroke="#000000" d="M 864 888 L 960.41357421875 888" stroke-miterlimit="10"/></g><g transform="translate(-414,-158) scale(1,1)"><path fill="none" stroke="#000000" d="M 864 898 L 960.41357421875 898" stroke-miterlimit="10"/></g><g transform="translate(-414,-158) scale(1,1)"><g><path fill="none" stroke="none"/><text fill="#000000" stroke="none" font-family="Arial" font-size="13px" font-style="normal" font-weight="bold" text-decoration="none" x="876.55517578125" y="867.5">VertexBuffer</text></g></g><g transform="translate(-414,-158) scale(1,1)"><g><path fill="none" stroke="none"/><text fill="#000000" stroke="none" font-family="Arial" font-size="13px" font-style="normal" font-weight="normal" text-decoration="none" x="872.597412109375" y="882.5">(from Buffers)</text></g></g><g transform="translate(-414,-158) scale(1,1)"><path fill="#C0C0C0" stroke="none" d="M 1581.864990234375 446.5 C 1581.864990234375 440.1487248 1587.013715034375 435 1593.364990234375 435 C 1599.716265434375 435 1604.864990234375 440.1487248 1604.864990234375 446.5 C 1604.864990234375 452.8512752 1599.716265434375 458 1593.364990234375 458 C 1587.013715034375 458 1581.864990234375 452.8512752 1581.864990234375 446.5 Z" opacity="0.2"/></g><g transform="translate(-414,-158) scale(1,1)"><path fill="#ffffff" stroke="none" d="M 1574.864990234375 439.5 C 1574.864990234375 433.1487248 1580.013715034375 428 1586.364990234375 428 C 1592.716265434375 428 1597.864990234375 433.1487248 1597.864990234375 439.5 C 1597.864990234375 445.8512752 1592.716265434375 451 1586.364990234375 451 C 1580.013715034375 451 1574.864990234375 445.8512752 1574.864990234375 439.5 Z"/></g><g transform="translate(-414,-158) scale(1,1)"><path fill="none" stroke="#000000" d="M 1574.864990234375 439.5 C 1574.864990234375 433.1487248 1580.013715034375 428 1586.364990234375 428 C 1592.716265434375 428 1597.864990234375 433.1487248 1597.864990234375 439.5 C 1597.864990234375 445.8512752 1592.716265434375 451 1586.364990234375 451 C 1580.013715034375 451 1574.864990234375 445.8512752 1574.864990234375 439.5 Z" stroke-miterlimit="10"/></g><g transform="translate(-414,-158) scale(1,1)"><g><path fill="none" stroke="none"/><text fill="#000000" stroke="none" font-family="Arial" font-size="13px" font-style="normal" font-weight="bold" text-decoration="none" x="1562.88818359375" y="470.5">IFactory</text></g></g><g transform="translate(-414,-158) scale(1,1)"><g><path fill="none" stroke="none"/><text fill="#000000" stroke="none" font-family="Arial" font-size="13px" font-style="normal" font-weight="normal" text-decoration="none" x="1540.5" y="485.5">(from Factories)</text></g></g><g transform="translate(-414,-158) scale(1,1)"><rect fill="#C0C0C0" stroke="none" x="1343" y="639" width="100.72998046875" height="59" opacity="0.2"/></g><g transform="translate(-414,-158) scale(1,1)"><rect fill="#ffffff" stroke="none" x="1336" y="632" width="100.72998046875" height="59"/></g><g transform="translate(-414,-158) scale(1,1)"><path fill="none" stroke="#000000" d="M 1336 632 L 1436.72998046875 632 L 1436.72998046875 691 L 1336 691 L 1336 632 Z Z" stroke-miterlimit="10"/></g><g transform="translate(-414,-158) scale(1,1)"><path fill="none" stroke="#000000" d="M 1336 672 L 1436.72998046875 672" stroke-miterlimit="10"/></g><g transform="translate(-414,-158) scale(1,1)"><path fill="none" stroke="#000000" d="M 1336 682 L 1436.72998046875 682" stroke-miterlimit="10"/></g><g transform="translate(-414,-158) scale(1,1)"><g><path fill="none" stroke="none"/><text fill="#000000" stroke="none" font-family="Arial" font-size="13px" font-style="normal" font-weight="bold" text-decoration="none" x="1343.734130859375" y="651.5">ShaderFactory</text></g></g><g transform="translate(-414,-158) scale(1,1)"><g><path fill="none" stroke="none"/><text fill="#000000" stroke="none" font-family="Arial" font-size="13px" font-style="normal" font-weight="normal" text-decoration="none" x="1340.5" y="666.5">(from Factories)</text></g></g><g transform="translate(-414,-158) scale(1,1)"><rect fill="#C0C0C0" stroke="none" x="1479" y="639" width="101.955078125" height="59" opacity="0.2"/></g><g transform="translate(-414,-158) scale(1,1)"><rect fill="#ffffff" stroke="none" x="1472" y="632" width="101.955078125" height="59"/></g><g transform="translate(-414,-158) scale(1,1)"><path fill="none" stroke="#000000" d="M 1472 632 L 1573.955078125 632 L 1573.955078125 691 L 1472 691 L 1472 632 Z Z" stroke-miterlimit="10"/></g><g transform="translate(-414,-158) scale(1,1)"><path fill="none" stroke="#000000" d="M 1472 672 L 1573.955078125 672" stroke-miterlimit="10"/></g><g transform="translate(-414,-158) scale(1,1)"><path fill="none" stroke="#000000" d="M 1472 682 L 1573.955078125 682" stroke-miterlimit="10"/></g><g transform="translate(-414,-158) scale(1,1)"><g><path fill="none" stroke="none"/><text fill="#000000" stroke="none" font-family="Arial" font-size="13px" font-style="normal" font-weight="bold" text-decoration="none" x="1479.9912109375" y="651.5">TextureFactory</text></g></g><g transform="translate(-414,-158) scale(1,1)"><g><path fill="none" stroke="none"/><text fill="#000000" stroke="none" font-family="Arial" font-size="13px" font-style="normal" font-weight="normal" text-decoration="none" x="1477.112548828125" y="666.5">(from Factories)</text></g></g><g transform="translate(-414,-158) scale(1,1)"><rect fill="#C0C0C0" stroke="none" x="1615" y="639" width="105.0908203125" height="59" opacity="0.2"/></g><g transform="translate(-414,-158) scale(1,1)"><rect fill="#ffffff" stroke="none" x="1608" y="632" width="105.0908203125" height="59"/></g><g transform="translate(-414,-158) scale(1,1)"><path fill="none" stroke="#000000" d="M 1608 632 L 1713.0908203125 632 L 1713.0908203125 691 L 1608 691 L 1608 632 Z Z" stroke-miterlimit="10"/></g><g transform="translate(-414,-158) scale(1,1)"><path fill="none" stroke="#000000" d="M 1608 672 L 1713.0908203125 672" stroke-miterlimit="10"/></g><g transform="translate(-414,-158) scale(1,1)"><path fill="none" stroke="#000000" d="M 1608 682 L 1713.0908203125 682" stroke-miterlimit="10"/></g><g transform="translate(-414,-158) scale(1,1)"><g><path fill="none" stroke="none"/><text fill="#000000" stroke="none" font-family="Arial" font-size="13px" font-style="normal" font-weight="bold" text-decoration="none" x="1615.75634765625" y="651.5">MaterialFactory</text></g></g><g transform="translate(-414,-158) scale(1,1)"><g><path fill="none" stroke="none"/><text fill="#000000" stroke="none" font-family="Arial" font-size="13px" font-style="normal" font-weight="normal" text-decoration="none" x="1614.680419921875" y="666.5">(from Factories)</text></g></g><g transform="translate(-414,-158) scale(1,1)"><path fill="none" stroke="#000000" d="M 1386 632 L 1386 439 L 1574.864990234375 439" stroke-miterlimit="10"/></g><g transform="translate(-414,-158) scale(1,1)"><path fill="none" stroke="#000000" d="M 1519 632 L 1519 439 L 1574.864990234375 439" stroke-miterlimit="10"/></g><g transform="translate(-414,-158) scale(1,1)"><path fill="none" stroke="#000000" d="M 1660 632 L 1660 439 L 1597.864990234375 439" stroke-miterlimit="10"/></g><g transform="translate(-414,-158) scale(1,1)"><rect fill="#C0C0C0" stroke="none" x="1175" y="895" width="109.4072265625" height="59" opacity="0.2"/></g><g transform="translate(-414,-158) scale(1,1)"><rect fill="#ffffff" stroke="none" x="1168" y="888" width="109.4072265625" height="59"/></g><g transform="translate(-414,-158) scale(1,1)"><path fill="none" stroke="#000000" d="M 1168 888 L 1277.4072265625 888 L 1277.4072265625 947 L 1168 947 L 1168 888 Z Z" stroke-miterlimit="10"/></g><g transform="translate(-414,-158) scale(1,1)"><path fill="none" stroke="#000000" d="M 1168 928 L 1277.4072265625 928" stroke-miterlimit="10"/></g><g transform="translate(-414,-158) scale(1,1)"><path fill="none" stroke="#000000" d="M 1168 938 L 1277.4072265625 938" stroke-miterlimit="10"/></g><g transform="translate(-414,-158) scale(1,1)"><g><path fill="none" stroke="none"/><text fill="#000000" stroke="none" font-family="Arial" font-size="13px" font-style="normal" font-weight="bold" text-decoration="none" x="1197.408203125" y="907.5">AShader</text></g></g><g transform="translate(-414,-158) scale(1,1)"><g><path fill="none" stroke="none"/><text fill="#000000" stroke="none" font-family="Arial" font-size="13px" font-style="normal" font-weight="normal" text-decoration="none" x="1172.5" y="922.5">(from Resources)</text></g></g><g transform="translate(-414,-158) scale(1,1)"><rect fill="#C0C0C0" stroke="none" x="1351" y="895" width="109.4072265625" height="59" opacity="0.2"/></g><g transform="translate(-414,-158) scale(1,1)"><rect fill="#ffffff" stroke="none" x="1344" y="888" width="109.4072265625" height="59"/></g><g transform="translate(-414,-158) scale(1,1)"><path fill="none" stroke="#000000" d="M 1344 888 L 1453.4072265625 888 L 1453.4072265625 947 L 1344 947 L 1344 888 Z Z" stroke-miterlimit="10"/></g><g transform="translate(-414,-158) scale(1,1)"><path fill="none" stroke="#000000" d="M 1344 928 L 1453.4072265625 928" stroke-miterlimit="10"/></g><g transform="translate(-414,-158) scale(1,1)"><path fill="none" stroke="#000000" d="M 1344 938 L 1453.4072265625 938" stroke-miterlimit="10"/></g><g transform="translate(-414,-158) scale(1,1)"><g><path fill="none" stroke="none"/><text fill="#000000" stroke="none" font-family="Arial" font-size="13px" font-style="normal" font-weight="bold" text-decoration="none" x="1377.38818359375" y="907.5">Texture</text></g></g><g transform="translate(-414,-158) scale(1,1)"><g><path fill="none" stroke="none"/><text fill="#000000" stroke="none" font-family="Arial" font-size="13px" font-style="normal" font-weight="normal" text-decoration="none" x="1348.5" y="922.5">(from Resources)</text></g></g><g transform="translate(-414,-158) scale(1,1)"><rect fill="#C0C0C0" stroke="none" x="1431" y="1111" width="109.4072265625" height="59" opacity="0.2"/></g><g transform="translate(-414,-158) scale(1,1)"><rect fill="#ffffff" stroke="none" x="1424" y="1104" width="109.4072265625" height="59"/></g><g transform="translate(-414,-158) scale(1,1)"><path fill="none" stroke="#000000" d="M 1424 1104 L 1533.4072265625 1104 L 1533.4072265625 1163 L 1424 1163 L 1424 1104 Z Z" stroke-miterlimit="10"/></g><g transform="translate(-414,-158) scale(1,1)"><path fill="none" stroke="#000000" d="M 1424 1144 L 1533.4072265625 1144" stroke-miterlimit="10"/></g><g transform="translate(-414,-158) scale(1,1)"><path fill="none" stroke="#000000" d="M 1424 1154 L 1533.4072265625 1154" stroke-miterlimit="10"/></g><g transform="translate(-414,-158) scale(1,1)"><g><path fill="none" stroke="none"/><text fill="#000000" stroke="none" font-family="Arial" font-size="13px" font-style="normal" font-weight="bold" text-decoration="none" x="1455.58544921875" y="1123.5">Material</text></g></g><g transform="translate(-414,-158) scale(1,1)"><g><path fill="none" stroke="none"/><text fill="#000000" stroke="none" font-family="Arial" font-size="13px" font-style="normal" font-weight="normal" text-decoration="none" x="1428.5" y="1138.5">(from Resources)</text></g></g><g transform="translate(-414,-158) scale(1,1)"><rect fill="#C0C0C0" stroke="none" x="1479" y="775" width="109.4072265625" height="59" opacity="0.2"/></g><g transform="translate(-414,-158) scale(1,1)"><rect fill="#ffffff" stroke="none" x="1472" y="768" width="109.4072265625" height="59"/></g><g transform="translate(-414,-158) scale(1,1)"><path fill="none" stroke="#000000" d="M 1472 768 L 1581.4072265625 768 L 1581.4072265625 827 L 1472 827 L 1472 768 Z Z" stroke-miterlimit="10"/></g><g transform="translate(-414,-158) scale(1,1)"><path fill="none" stroke="#000000" d="M 1472 808 L 1581.4072265625 808" stroke-miterlimit="10"/></g><g transform="translate(-414,-158) scale(1,1)"><path fill="none" stroke="#000000" d="M 1472 818 L 1581.4072265625 818" stroke-miterlimit="10"/></g><g transform="translate(-414,-158) scale(1,1)"><g><path fill="none" stroke="none"/><text fill="#000000" stroke="none" font-family="Arial" font-size="13px" font-style="normal" font-weight="bold" text-decoration="none" x="1494.549560546875" y="787.5">AResource</text></g></g><g transform="translate(-414,-158) scale(1,1)"><g><path fill="none" stroke="none"/><text fill="#000000" stroke="none" font-family="Arial" font-size="13px" font-style="normal" font-weight="normal" text-decoration="none" x="1476.5" y="802.5">(from Resources)</text></g></g><g transform="translate(-414,-158) scale(1,1)"><rect fill="#C0C0C0" stroke="none" x="871" y="727" width="96.21875" height="59" opacity="0.2"/></g><g transform="translate(-414,-158) scale(1,1)"><rect fill="#ffffff" stroke="none" x="864" y="720" width="96.21875" height="59"/></g><g transform="translate(-414,-158) scale(1,1)"><path fill="none" stroke="#000000" d="M 864 720 L 960.21875 720 L 960.21875 779 L 864 779 L 864 720 Z Z" stroke-miterlimit="10"/></g><g transform="translate(-414,-158) scale(1,1)"><path fill="none" stroke="#000000" d="M 864 760 L 960.21875 760" stroke-miterlimit="10"/></g><g transform="translate(-414,-158) scale(1,1)"><path fill="none" stroke="#000000" d="M 864 770 L 960.21875 770" stroke-miterlimit="10"/></g><g transform="translate(-414,-158) scale(1,1)"><g><path fill="none" stroke="none"/><text fill="#000000" stroke="none" font-family="Arial" font-size="13px" font-style="normal" font-weight="bold" text-decoration="none" x="878.152587890625" y="739.5">VertexArray</text></g></g><g transform="translate(-414,-158) scale(1,1)"><g><path fill="none" stroke="none"/><text fill="#000000" stroke="none" font-family="Arial" font-size="13px" font-style="normal" font-weight="normal" text-decoration="none" x="872.5" y="754.5">(from Buffers)</text></g></g><g transform="translate(-414,-158) scale(1,1)"><rect fill="#C0C0C0" stroke="none" x="535" y="991" width="95.67724609375" height="59" opacity="0.2"/></g><g transform="translate(-414,-158) scale(1,1)"><rect fill="#ffffff" stroke="none" x="528" y="984" width="95.67724609375" height="59"/></g><g transform="translate(-414,-158) scale(1,1)"><path fill="none" stroke="#000000" d="M 528 984 L 623.67724609375 984 L 623.67724609375 1043 L 528 1043 L 528 984 Z Z" stroke-miterlimit="10"/></g><g transform="translate(-414,-158) scale(1,1)"><path fill="none" stroke="#000000" d="M 528 1024 L 623.67724609375 1024" stroke-miterlimit="10"/></g><g transform="translate(-414,-158) scale(1,1)"><path fill="none" stroke="#000000" d="M 528 1034 L 623.67724609375 1034" stroke-miterlimit="10"/></g><g transform="translate(-414,-158) scale(1,1)"><g><path fill="none" stroke="none"/><text fill="#000000" stroke="none" font-family="Arial" font-size="13px" font-style="normal" font-weight="bold" text-decoration="none" x="535.848388671875" y="1003.5">StorageBuffer</text></g></g><g transform="translate(-414,-158) scale(1,1)"><g><path fill="none" stroke="none"/><text fill="#000000" stroke="none" font-family="Arial" font-size="13px" font-style="normal" font-weight="normal" text-decoration="none" x="536.229248046875" y="1018.5">(from Buffers)</text></g></g><g transform="translate(-414,-158) scale(1,1)"><rect fill="#C0C0C0" stroke="none" x="535" y="871" width="97.10546875" height="59" opacity="0.2"/></g><g transform="translate(-414,-158) scale(1,1)"><rect fill="#ffffff" stroke="none" x="528" y="864" width="97.10546875" height="59"/></g><g transform="translate(-414,-158) scale(1,1)"><path fill="none" stroke="#000000" d="M 528 864 L 625.10546875 864 L 625.10546875 923 L 528 923 L 528 864 Z Z" stroke-miterlimit="10"/></g><g transform="translate(-414,-158) scale(1,1)"><path fill="none" stroke="#000000" d="M 528 904 L 625.10546875 904" stroke-miterlimit="10"/></g><g transform="translate(-414,-158) scale(1,1)"><path fill="none" stroke="#000000" d="M 528 914 L 625.10546875 914" stroke-miterlimit="10"/></g><g transform="translate(-414,-158) scale(1,1)"><g><path fill="none" stroke="none"/><text fill="#000000" stroke="none" font-family="Arial" font-size="13px" font-style="normal" font-weight="bold" text-decoration="none" x="536.5751953125" y="883.5">UniformBuffer</text></g></g><g transform="translate(-414,-158) scale(1,1)"><g><path fill="none" stroke="none"/><text fill="#000000" stroke="none" font-family="Arial" font-size="13px" font-style="normal" font-weight="normal" text-decoration="none" x="536.943359375" y="898.5">(from Buffers)</text></g></g><g transform="translate(-414,-158) scale(1,1)"><rect fill="#C0C0C0" stroke="none" x="679" y="423" width="105.07177734375" height="59" opacity="0.2"/></g><g transform="translate(-414,-158) scale(1,1)"><rect fill="#ffffff" stroke="none" x="672" y="416" width="105.07177734375" height="59"/></g><g transform="translate(-414,-158) scale(1,1)"><path fill="none" stroke="#000000" d="M 672 416 L 777.07177734375 416 L 777.07177734375 475 L 672 475 L 672 416 Z Z" stroke-miterlimit="10"/></g><g transform="translate(-414,-158) scale(1,1)"><path fill="none" stroke="#000000" d="M 672 456 L 777.07177734375 456" stroke-miterlimit="10"/></g><g transform="translate(-414,-158) scale(1,1)"><path fill="none" stroke="#000000" d="M 672 466 L 777.07177734375 466" stroke-miterlimit="10"/></g><g transform="translate(-414,-158) scale(1,1)"><g><path fill="none" stroke="none"/><text fill="#000000" stroke="none" font-family="Arial" font-size="13px" font-style="normal" font-weight="bold" text-decoration="none" x="679.365966796875" y="435.5">RenderingState</text></g></g><g transform="translate(-414,-158) scale(1,1)"><g><path fill="none" stroke="none"/><text fill="#000000" stroke="none" font-family="Arial" font-size="13px" font-style="normal" font-weight="normal" text-decoration="none" x="681.91455078125" y="450.5">(from Settings)</text></g></g><g transform="translate(-414,-158) scale(1,1)"><path fill="none" stroke="#000000" d="M 777 445 L 880 445" stroke-miterlimit="10"/></g><g transform="translate(-414,-158) scale(1,1)"><path fill="#000000" stroke="none" d="M 869.8373251423759 449.209517756016 L 880 445 L 869.8373251423758 440.790482243984 L 858 445"/></g><g transform="translate(-414,-158) scale(1,1)"><path fill="none" stroke="#000000" d="M 869.8373251423759 449.209517756016 L 880 445 L 869.8373251423758 440.790482243984 L 858 445 L 869.8373251423759 449.209517756016" stroke-miterlimit="10"/></g><g transform="translate(-414,-158) scale(1,1)"><g><path fill="none" stroke="none"/><text fill="#000000" stroke="none" font-family="Arial" font-size="13px" font-style="normal" font-weight="normal" text-decoration="none" x="794.5" y="463.5">1</text></g></g><g transform="translate(-414,-158) scale(1,1)"><rect fill="#C0C0C0" stroke="none" x="865" y="575" width="122.4072265625" height="59" opacity="0.2"/></g><g transform="translate(-414,-158) scale(1,1)"><rect fill="#ffffff" stroke="none" x="858" y="568" width="122.4072265625" height="59"/></g><g transform="translate(-414,-158) scale(1,1)"><path fill="none" stroke="#000000" d="M 858 568 L 980.4072265625 568 L 980.4072265625 627 L 858 627 L 858 568 Z Z" stroke-miterlimit="10"/></g><g transform="translate(-414,-158) scale(1,1)"><path fill="none" stroke="#000000" d="M 858 608 L 980.4072265625 608" stroke-miterlimit="10"/></g><g transform="translate(-414,-158) scale(1,1)"><path fill="none" stroke="#000000" d="M 858 618 L 980.4072265625 618" stroke-miterlimit="10"/></g><g transform="translate(-414,-158) scale(1,1)"><g><path fill="none" stroke="none"/><text fill="#000000" stroke="none" font-family="Arial" font-size="13px" font-style="normal" font-weight="bold" text-decoration="none" x="874.052734375" y="587.5">DrawCommand</text></g></g><g transform="translate(-414,-158) scale(1,1)"><g><path fill="none" stroke="none"/><text fill="#000000" stroke="none" font-family="Arial" font-size="13px" font-style="normal" font-weight="normal" text-decoration="none" x="866.83544921875" y="602.5">(from Commands)</text></g></g><g transform="translate(-414,-158) scale(1,1)"><path fill="none" stroke="#000000" d="M 916 568 L 916 475" stroke-miterlimit="10"/></g><g transform="translate(-414,-158) scale(1,1)"><path fill="#000000" stroke="none" d="M 920.209517756016 485.16267485762415 L 916 475 L 911.790482243984 485.16267485762415 L 916 497"/></g><g transform="translate(-414,-158) scale(1,1)"><path fill="none" stroke="#000000" d="M 920.209517756016 485.16267485762415 L 916 475 L 911.790482243984 485.16267485762415 L 916 497 L 920.209517756016 485.16267485762415" stroke-miterlimit="10"/></g><g transform="translate(-414,-158) scale(1,1)"><g><path fill="none" stroke="none"/><text fill="#000000" stroke="none" font-family="Arial" font-size="13px" font-style="normal" font-weight="normal" text-decoration="none" x="918.74365234375" y="564.5">0..*</text></g></g><g transform="translate(-414,-158) scale(1,1)"><path fill="none" stroke="#000000" d="M 1376 947 L 1376 1120 L 1424 1120" stroke-miterlimit="10"/></g><g transform="translate(-414,-158) scale(1,1)"><path fill="#FFFFFF" stroke="none" d="M 1413.837325142376 1124.2095177560159 L 1424 1120 L 1413.837325142376 1115.7904822439841 L 1402 1120"/></g><g transform="translate(-414,-158) scale(1,1)"><path fill="none" stroke="#000000" d="M 1413.837325142376 1124.2095177560159 L 1424 1120 L 1413.837325142376 1115.7904822439841 L 1402 1120 L 1413.837325142376 1124.2095177560159" stroke-miterlimit="10"/></g><g transform="translate(-414,-158) scale(1,1)"><g><path fill="none" stroke="none"/><text fill="#000000" stroke="none" font-family="Arial" font-size="13px" font-style="normal" font-weight="normal" text-decoration="none" x="1352.74365234375" y="974.5">0..*</text></g></g><g transform="translate(-414,-158) scale(1,1)"><path fill="none" stroke="#000000" d="M 1224 888 L 1224 800 L 1472 800" stroke-miterlimit="10"/></g><g transform="translate(-414,-158) scale(1,1)"><path fill="#FFFFFF" stroke="none" d="M 1451.6746502847518 808.419035512032 L 1472 800 L 1451.6746502847516 791.580964487968"/></g><g transform="translate(-414,-158) scale(1,1)"><path fill="none" stroke="#000000" d="M 1451.6746502847518 808.419035512032 L 1472 800 L 1451.6746502847516 791.580964487968 L 1451.6746502847518 808.419035512032" stroke-miterlimit="10"/></g><g transform="translate(-414,-158) scale(1,1)"><path fill="none" stroke="#000000" d="M 1533 1133 L 1552 1133 L 1552 827" stroke-miterlimit="10"/></g><g transform="translate(-414,-158) scale(1,1)"><path fill="#FFFFFF" stroke="none" d="M 1560.419035512032 847.3253497152483 L 1552 827 L 1543.580964487968 847.3253497152483"/></g><g transform="translate(-414,-158) scale(1,1)"><path fill="none" stroke="#000000" d="M 1560.419035512032 847.3253497152483 L 1552 827 L 1543.580964487968 847.3253497152483 L 1560.419035512032 847.3253497152483" stroke-miterlimit="10"/></g><g transform="translate(-414,-158) scale(1,1)"><path fill="none" stroke="#000000" d="M 1453 920 L 1504 920 L 1504 827" stroke-miterlimit="10"/></g><g transform="translate(-414,-158) scale(1,1)"><path fill="#FFFFFF" stroke="none" d="M 1512.419035512032 847.3253497152483 L 1504 827 L 1495.580964487968 847.3253497152483"/></g><g transform="translate(-414,-158) scale(1,1)"><path fill="none" stroke="#000000" d="M 1512.419035512032 847.3253497152483 L 1504 827 L 1495.580964487968 847.3253497152483 L 1512.419035512032 847.3253497152483" stroke-miterlimit="10"/></g><g transform="translate(-414,-158) scale(1,1)"><path fill="#C0C0C0" stroke="none" d="M 711.609375 954.5 C 711.609375 948.1487248 716.7580998 943 723.109375 943 C 729.4606502 943 734.609375 948.1487248 734.609375 954.5 C 734.609375 960.8512752 729.4606502 966 723.109375 966 C 716.7580998 966 711.609375 960.8512752 711.609375 954.5 Z" opacity="0.2"/></g><g transform="translate(-414,-158) scale(1,1)"><path fill="#ffffff" stroke="none" d="M 704.609375 947.5 C 704.609375 941.1487248 709.7580998 936 716.109375 936 C 722.4606502 936 727.609375 941.1487248 727.609375 947.5 C 727.609375 953.8512752 722.4606502 959 716.109375 959 C 709.7580998 959 704.609375 953.8512752 704.609375 947.5 Z"/></g><g transform="translate(-414,-158) scale(1,1)"><path fill="none" stroke="#000000" d="M 704.609375 947.5 C 704.609375 941.1487248 709.7580998 936 716.109375 936 C 722.4606502 936 727.609375 941.1487248 727.609375 947.5 C 727.609375 953.8512752 722.4606502 959 716.109375 959 C 709.7580998 959 704.609375 953.8512752 704.609375 947.5 Z" stroke-miterlimit="10"/></g><g transform="translate(-414,-158) scale(1,1)"><g><path fill="none" stroke="none"/><text fill="#000000" stroke="none" font-family="Arial" font-size="13px" font-style="normal" font-weight="bold" text-decoration="none" x="697.0791015625" y="978.5">IBuffer</text></g></g><g transform="translate(-414,-158) scale(1,1)"><g><path fill="none" stroke="none"/><text fill="#000000" stroke="none" font-family="Arial" font-size="13px" font-style="normal" font-weight="normal" text-decoration="none" x="676.5" y="993.5">(from Buffers)</text></g></g><g transform="translate(-414,-158) scale(1,1)"><path fill="none" stroke="#000000" d="M 624 1016 L 656 1016 L 656 947 L 704.609375 947" stroke-miterlimit="10"/></g><g transform="translate(-414,-158) scale(1,1)"><path fill="none" stroke="#000000" d="M 625 888 L 656 888 L 656 947 L 704.609375 947" stroke-miterlimit="10"/></g><g transform="translate(-414,-158) scale(1,1)"><path fill="none" stroke="#000000" d="M 912 907 L 912 947 L 727.609375 947" stroke-miterlimit="10"/></g><g transform="translate(-414,-158) scale(1,1)"><path fill="none" stroke="#000000" d="M 864 752 L 720 752 L 720 936" stroke-miterlimit="10"/></g><g transform="translate(-414,-158) scale(1,1)"><path fill="none" stroke="#000000" d="M 912 848 L 912 779" stroke-miterlimit="10"/></g><g transform="translate(-414,-158) scale(1,1)"><path fill="#000000" stroke="none" d="M 916.209517756016 789.1626748576241 L 912 779 L 907.790482243984 789.1626748576241 L 912 801"/></g><g transform="translate(-414,-158) scale(1,1)"><path fill="none" stroke="#000000" d="M 916.209517756016 789.1626748576241 L 912 779 L 907.790482243984 789.1626748576241 L 912 801 L 916.209517756016 789.1626748576241" stroke-miterlimit="10"/></g><g transform="translate(-414,-158) scale(1,1)"><g><path fill="none" stroke="none"/><text fill="#000000" stroke="none" font-family="Arial" font-size="13px" font-style="normal" font-weight="normal" text-decoration="none" x="913.74365234375" y="844.5">0..*</text></g></g><g transform="translate(-414,-158) scale(1,1)"><path fill="none" stroke="#000000" d="M 672 440 L 424 440 L 424 1208 L 1472 1208 L 1472 1163" stroke-miterlimit="10"/></g><g transform="translate(-414,-158) scale(1,1)"><path fill="#000000" stroke="none" d="M 1476.2095177560159 1173.162674857624 L 1472 1163 L 1467.7904822439841 1173.162674857624 L 1472 1185"/></g><g transform="translate(-414,-158) scale(1,1)"><path fill="none" stroke="#000000" d="M 1476.2095177560159 1173.162674857624 L 1472 1163 L 1467.7904822439841 1173.162674857624 L 1472 1185 L 1476.2095177560159 1173.162674857624" stroke-miterlimit="10"/></g><g transform="translate(-414,-158) scale(1,1)"><g><path fill="none" stroke="none"/><text fill="#000000" stroke="none" font-family="Arial" font-size="13px" font-style="normal" font-weight="normal" text-decoration="none" x="646.5" y="433.5">1</text></g></g><g transform="translate(-414,-158) scale(1,1)"><path fill="#C0C0C0" stroke="none" d="M 1188.3154296875 434.5 C 1188.3154296875 428.1487248 1193.4641544875 423 1199.8154296875 423 C 1206.1667048875 423 1211.3154296875 428.1487248 1211.3154296875 434.5 C 1211.3154296875 440.8512752 1206.1667048875 446 1199.8154296875 446 C 1193.4641544875 446 1188.3154296875 440.8512752 1188.3154296875 434.5 Z" opacity="0.2"/></g><g transform="translate(-414,-158) scale(1,1)"><path fill="#ffffff" stroke="none" d="M 1181.3154296875 427.5 C 1181.3154296875 421.1487248 1186.4641544875 416 1192.8154296875 416 C 1199.1667048875 416 1204.3154296875 421.1487248 1204.3154296875 427.5 C 1204.3154296875 433.8512752 1199.1667048875 439 1192.8154296875 439 C 1186.4641544875 439 1181.3154296875 433.8512752 1181.3154296875 427.5 Z"/></g><g transform="translate(-414,-158) scale(1,1)"><path fill="none" stroke="#000000" d="M 1181.3154296875 427.5 C 1181.3154296875 421.1487248 1186.4641544875 416 1192.8154296875 416 C 1199.1667048875 416 1204.3154296875 421.1487248 1204.3154296875 427.5 C 1204.3154296875 433.8512752 1199.1667048875 439 1192.8154296875 439 C 1186.4641544875 439 1181.3154296875 433.8512752 1181.3154296875 427.5 Z" stroke-miterlimit="10"/></g><g transform="translate(-414,-158) scale(1,1)"><g><path fill="none" stroke="none"/><text fill="#000000" stroke="none" font-family="Arial" font-size="13px" font-style="normal" font-weight="bold" text-decoration="none" x="1135.372314453125" y="458.5">ICommandManager</text></g></g><g transform="translate(-414,-158) scale(1,1)"><g><path fill="none" stroke="none"/><text fill="#000000" stroke="none" font-family="Arial" font-size="13px" font-style="normal" font-weight="normal" text-decoration="none" x="1140.447265625" y="473.5">(from Commands)</text></g></g><g transform="translate(-414,-158) scale(1,1)"><rect fill="#C0C0C0" stroke="none" x="1007" y="175" width="128.1708984375" height="59" opacity="0.2"/></g><g transform="translate(-414,-158) scale(1,1)"><rect fill="#ffffff" stroke="none" x="1000" y="168" width="128.1708984375" height="59"/></g><g transform="translate(-414,-158) scale(1,1)"><path fill="none" stroke="#000000" d="M 1000 168 L 1128.1708984375 168 L 1128.1708984375 227 L 1000 227 L 1000 168 Z Z" stroke-miterlimit="10"/></g><g transform="translate(-414,-158) scale(1,1)"><path fill="none" stroke="#000000" d="M 1000 208 L 1128.1708984375 208" stroke-miterlimit="10"/></g><g transform="translate(-414,-158) scale(1,1)"><path fill="none" stroke="#000000" d="M 1000 218 L 1128.1708984375 218" stroke-miterlimit="10"/></g><g transform="translate(-414,-158) scale(1,1)"><g><path fill="none" stroke="none"/><text fill="#000000" stroke="none" font-family="Arial" font-size="13px" font-style="normal" font-weight="bold" text-decoration="none" x="1008.806884765625" y="187.5">CommandBatching</text></g></g><g transform="translate(-414,-158) scale(1,1)"><g><path fill="none" stroke="none"/><text fill="#000000" stroke="none" font-family="Arial" font-size="13px" font-style="normal" font-weight="normal" text-decoration="none" x="1011.71728515625" y="202.5">(from Commands)</text></g></g><g transform="translate(-414,-158) scale(1,1)"><path fill="none" stroke="#000000" d="M 1064 227 L 1064 427 L 1181.3154296875 427" stroke-miterlimit="10"/></g><g transform="translate(-414,-158) scale(1,1)"><rect fill="#C0C0C0" stroke="none" x="1255" y="175" width="154.16455078125" height="59" opacity="0.2"/></g><g transform="translate(-414,-158) scale(1,1)"><rect fill="#ffffff" stroke="none" x="1248" y="168" width="154.16455078125" height="59"/></g><g transform="translate(-414,-158) scale(1,1)"><path fill="none" stroke="#000000" d="M 1248 168 L 1402.16455078125 168 L 1402.16455078125 227 L 1248 227 L 1248 168 Z Z" stroke-miterlimit="10"/></g><g transform="translate(-414,-158) scale(1,1)"><path fill="none" stroke="#000000" d="M 1248 208 L 1402.16455078125 208" stroke-miterlimit="10"/></g><g transform="translate(-414,-158) scale(1,1)"><path fill="none" stroke="#000000" d="M 1248 218 L 1402.16455078125 218" stroke-miterlimit="10"/></g><g transform="translate(-414,-158) scale(1,1)"><g><path fill="none" stroke="none"/><text fill="#000000" stroke="none" font-family="Arial" font-size="13px" font-style="normal" font-weight="bold" text-decoration="none" x="1257.879638671875" y="187.5">CommandAlphaSorting</text></g></g><g transform="translate(-414,-158) scale(1,1)"><g><path fill="none" stroke="none"/><text fill="#000000" stroke="none" font-family="Arial" font-size="13px" font-style="normal" font-weight="normal" text-decoration="none" x="1272.714111328125" y="202.5">(from Commands)</text></g></g><g transform="translate(-414,-158) scale(1,1)"><path fill="none" stroke="#000000" d="M 1320 227 L 1320 427 L 1204.3154296875 427" stroke-miterlimit="10"/></g><g transform="translate(-414,-158) scale(1,1)"><path fill="none" stroke="#000000" d="M 1128 447 L 955 447" stroke-miterlimit="10"/></g><g transform="translate(-414,-158) scale(1,1)"><path fill="#FFFFFF" stroke="none" d="M 965.1626748576241 442.790482243984 L 955 447 L 965.1626748576241 451.209517756016 L 977 447"/></g><g transform="translate(-414,-158) scale(1,1)"><path fill="none" stroke="#000000" d="M 965.1626748576241 442.790482243984 L 955 447 L 965.1626748576241 451.209517756016 L 977 447 L 965.1626748576241 442.790482243984" stroke-miterlimit="10"/></g><g transform="translate(-414,-158) scale(1,1)"><g><path fill="none" stroke="none"/><text fill="#000000" stroke="none" font-family="Arial" font-size="13px" font-style="normal" font-weight="normal" text-decoration="none" x="1102.74365234375" y="468.5">0..*</text></g></g><g transform="translate(-414,-158) scale(1,1)"><rect fill="#C0C0C0" stroke="none" x="871" y="1015" width="96" height="59" opacity="0.2"/></g><g transform="translate(-414,-158) scale(1,1)"><rect fill="#ffffff" stroke="none" x="864" y="1008" width="96" height="59"/></g><g transform="translate(-414,-158) scale(1,1)"><path fill="none" stroke="#000000" d="M 864 1008 L 960 1008 L 960 1067 L 864 1067 L 864 1008 Z Z" stroke-miterlimit="10"/></g><g transform="translate(-414,-158) scale(1,1)"><path fill="none" stroke="#000000" d="M 864 1048 L 960 1048" stroke-miterlimit="10"/></g><g transform="translate(-414,-158) scale(1,1)"><path fill="none" stroke="#000000" d="M 864 1058 L 960 1058" stroke-miterlimit="10"/></g><g transform="translate(-414,-158) scale(1,1)"><g><path fill="none" stroke="none"/><text fill="#000000" stroke="none" font-family="Arial" font-size="13px" font-style="normal" font-weight="bold" text-decoration="none" x="878.874755859375" y="1027.5">IndexBuffer</text></g></g><g transform="translate(-414,-158) scale(1,1)"><g><path fill="none" stroke="none"/><text fill="#000000" stroke="none" font-family="Arial" font-size="13px" font-style="normal" font-weight="normal" text-decoration="none" x="872.390625" y="1042.5">(from Buffers)</text></g></g><g transform="translate(-414,-158) scale(1,1)"><path fill="none" stroke="#000000" d="M 864 1032 L 716 1032 L 716 959" stroke-miterlimit="10"/></g><g transform="translate(-414,-158) scale(1,1)"><rect fill="#C0C0C0" stroke="none" x="1631" y="919" width="109.4072265625" height="59" opacity="0.2"/></g><g transform="translate(-414,-158) scale(1,1)"><rect fill="#ffffff" stroke="none" x="1624" y="912" width="109.4072265625" height="59"/></g><g transform="translate(-414,-158) scale(1,1)"><path fill="none" stroke="#000000" d="M 1624 912 L 1733.4072265625 912 L 1733.4072265625 971 L 1624 971 L 1624 912 Z Z" stroke-miterlimit="10"/></g><g transform="translate(-414,-158) scale(1,1)"><path fill="none" stroke="#000000" d="M 1624 952 L 1733.4072265625 952" stroke-miterlimit="10"/></g><g transform="translate(-414,-158) scale(1,1)"><path fill="none" stroke="#000000" d="M 1624 962 L 1733.4072265625 962" stroke-miterlimit="10"/></g><g transform="translate(-414,-158) scale(1,1)"><g><path fill="none" stroke="none"/><text fill="#000000" stroke="none" font-family="Arial" font-size="13px" font-style="normal" font-weight="bold" text-decoration="none" x="1662.80908203125" y="931.5">Mesh</text></g></g><g transform="translate(-414,-158) scale(1,1)"><g><path fill="none" stroke="none"/><text fill="#000000" stroke="none" font-family="Arial" font-size="13px" font-style="normal" font-weight="normal" text-decoration="none" x="1628.5" y="946.5">(from Resources)</text></g></g><g transform="translate(-414,-158) scale(1,1)"><rect fill="#C0C0C0" stroke="none" x="1831" y="919" width="109.4072265625" height="59" opacity="0.2"/></g><g transform="translate(-414,-158) scale(1,1)"><rect fill="#ffffff" stroke="none" x="1824" y="912" width="109.4072265625" height="59"/></g><g transform="translate(-414,-158) scale(1,1)"><path fill="none" stroke="#000000" d="M 1824 912 L 1933.4072265625 912 L 1933.4072265625 971 L 1824 971 L 1824 912 Z Z" stroke-miterlimit="10"/></g><g transform="translate(-414,-158) scale(1,1)"><path fill="none" stroke="#000000" d="M 1824 952 L 1933.4072265625 952" stroke-miterlimit="10"/></g><g transform="translate(-414,-158) scale(1,1)"><path fill="none" stroke="#000000" d="M 1824 962 L 1933.4072265625 962" stroke-miterlimit="10"/></g><g transform="translate(-414,-158) scale(1,1)"><g><path fill="none" stroke="none"/><text fill="#000000" stroke="none" font-family="Arial" font-size="13px" font-style="normal" font-weight="bold" text-decoration="none" x="1861" y="931.5">Model</text></g></g><g transform="translate(-414,-158) scale(1,1)"><g><path fill="none" stroke="none"/><text fill="#000000" stroke="none" font-family="Arial" font-size="13px" font-style="normal" font-weight="normal" text-decoration="none" x="1828.5" y="946.5">(from Resources)</text></g></g><g transform="translate(-414,-158) scale(1,1)"><path fill="none" stroke="#000000" d="M 1733 938 L 1824 938" stroke-miterlimit="10"/></g><g transform="translate(-414,-158) scale(1,1)"><path fill="#000000" stroke="none" d="M 1813.837325142376 942.209517756016 L 1824 938 L 1813.837325142376 933.790482243984 L 1802 938"/></g><g transform="translate(-414,-158) scale(1,1)"><path fill="none" stroke="#000000" d="M 1813.837325142376 942.209517756016 L 1824 938 L 1813.837325142376 933.790482243984 L 1802 938 L 1813.837325142376 942.209517756016" stroke-miterlimit="10"/></g><g transform="translate(-414,-158) scale(1,1)"><g><path fill="none" stroke="none"/><text fill="#000000" stroke="none" font-family="Arial" font-size="13px" font-style="normal" font-weight="normal" text-decoration="none" x="1743.74365234375" y="956.5">0..*</text></g></g><g transform="translate(-414,-158) scale(1,1)"><path fill="none" stroke="#000000" d="M 1688 912 L 1688 808 L 1581 808" stroke-miterlimit="10"/></g><g transform="translate(-414,-158) scale(1,1)"><path fill="#FFFFFF" stroke="none" d="M 1601.3253497152482 799.580964487968 L 1581 808 L 1601.3253497152482 816.419035512032"/></g><g transform="translate(-414,-158) scale(1,1)"><path fill="none" stroke="#000000" d="M 1601.3253497152482 799.580964487968 L 1581 808 L 1601.3253497152482 816.419035512032 L 1601.3253497152482 799.580964487968" stroke-miterlimit="10"/></g><g transform="translate(-414,-158) scale(1,1)"><path fill="none" stroke="#000000" d="M 1880 912 L 1880 784 L 1581 784" stroke-miterlimit="10"/></g><g transform="translate(-414,-158) scale(1,1)"><path fill="#FFFFFF" stroke="none" d="M 1601.3253497152482 775.580964487968 L 1581 784 L 1601.3253497152482 792.419035512032"/></g><g transform="translate(-414,-158) scale(1,1)"><path fill="none" stroke="#000000" d="M 1601.3253497152482 775.580964487968 L 1581 784 L 1601.3253497152482 792.419035512032 L 1601.3253497152482 775.580964487968" stroke-miterlimit="10"/></g><g transform="translate(-414,-158) scale(1,1)"><path fill="none" stroke="#000000" d="M 1688 971 L 1688 1000 L 1040 1000 L 1040 592 L 980 592" stroke-miterlimit="10"/></g><g transform="translate(-414,-158) scale(1,1)"><path fill="#FFFFFF" stroke="none" d="M 990.1626748576241 587.790482243984 L 980 592 L 990.1626748576241 596.209517756016 L 1002 592"/></g><g transform="translate(-414,-158) scale(1,1)"><path fill="none" stroke="#000000" d="M 990.1626748576241 587.790482243984 L 980 592 L 990.1626748576241 596.209517756016 L 1002 592 L 990.1626748576241 587.790482243984" stroke-miterlimit="10"/></g><g transform="translate(-414,-158) scale(1,1)"><g><path fill="none" stroke="none"/><text fill="#000000" stroke="none" font-family="Arial" font-size="13px" font-style="normal" font-weight="normal" text-decoration="none" x="1671.5" y="998.5">1</text></g></g><g transform="translate(-414,-158) scale(1,1)"><path fill="none" stroke="#000000" d="M 1424 1144 L 968 1144 L 968 627" stroke-miterlimit="10"/></g><g transform="translate(-414,-158) scale(1,1)"><path fill="#FFFFFF" stroke="none" d="M 972.209517756016 637.1626748576241 L 968 627 L 963.790482243984 637.1626748576241 L 968 649"/></g><g transform="translate(-414,-158) scale(1,1)"><path fill="none" stroke="#000000" d="M 972.209517756016 637.1626748576241 L 968 627 L 963.790482243984 637.1626748576241 L 968 649 L 972.209517756016 637.1626748576241" stroke-miterlimit="10"/></g><g transform="translate(-414,-158) scale(1,1)"><g><path fill="none" stroke="none"/><text fill="#000000" stroke="none" font-family="Arial" font-size="13px" font-style="normal" font-weight="normal" text-decoration="none" x="1407.5" y="1164.5">1</text></g></g><g transform="translate(-414,-158) scale(1,1)"><rect fill="#C0C0C0" stroke="none" x="1743" y="639" width="100.72998046875" height="59" opacity="0.2"/></g><g transform="translate(-414,-158) scale(1,1)"><rect fill="#ffffff" stroke="none" x="1736" y="632" width="100.72998046875" height="59"/></g><g transform="translate(-414,-158) scale(1,1)"><path fill="none" stroke="#000000" d="M 1736 632 L 1836.72998046875 632 L 1836.72998046875 691 L 1736 691 L 1736 632 Z Z" stroke-miterlimit="10"/></g><g transform="translate(-414,-158) scale(1,1)"><path fill="none" stroke="#000000" d="M 1736 672 L 1836.72998046875 672" stroke-miterlimit="10"/></g><g transform="translate(-414,-158) scale(1,1)"><path fill="none" stroke="#000000" d="M 1736 682 L 1836.72998046875 682" stroke-miterlimit="10"/></g><g transform="translate(-414,-158) scale(1,1)"><g><path fill="none" stroke="none"/><text fill="#000000" stroke="none" font-family="Arial" font-size="13px" font-style="normal" font-weight="bold" text-decoration="none" x="1746.990478515625" y="651.5">ModelFactory</text></g></g><g transform="translate(-414,-158) scale(1,1)"><g><path fill="none" stroke="none"/><text fill="#000000" stroke="none" font-family="Arial" font-size="13px" font-style="normal" font-weight="normal" text-decoration="none" x="1740.5" y="666.5">(from Factories)</text></g></g><g transform="translate(-414,-158) scale(1,1)"><path fill="none" stroke="#000000" d="M 1784 632 L 1784 439 L 1597.864990234375 439" stroke-miterlimit="10"/></g><g transform="translate(-414,-158) scale(1,1)"><rect fill="#C0C0C0" stroke="none" x="1151" y="639" width="109.41357421875" height="59" opacity="0.2"/></g><g transform="translate(-414,-158) scale(1,1)"><rect fill="#ffffff" stroke="none" x="1144" y="632" width="109.41357421875" height="59"/></g><g transform="translate(-414,-158) scale(1,1)"><path fill="none" stroke="#000000" d="M 1144 632 L 1253.41357421875 632 L 1253.41357421875 691 L 1144 691 L 1144 632 Z Z" stroke-miterlimit="10"/></g><g transform="translate(-414,-158) scale(1,1)"><path fill="none" stroke="#000000" d="M 1144 672 L 1253.41357421875 672" stroke-miterlimit="10"/></g><g transform="translate(-414,-158) scale(1,1)"><path fill="none" stroke="#000000" d="M 1144 682 L 1253.41357421875 682" stroke-miterlimit="10"/></g><g transform="translate(-414,-158) scale(1,1)"><g><path fill="none" stroke="none"/><text fill="#000000" stroke="none" font-family="Arial" font-size="13px" font-style="normal" font-weight="bold" text-decoration="none" x="1151.740478515625" y="651.5">ShaderCompiler</text></g></g><g transform="translate(-414,-158) scale(1,1)"><g><path fill="none" stroke="none"/><text fill="#000000" stroke="none" font-family="Arial" font-size="13px" font-style="normal" font-weight="normal" text-decoration="none" x="1157.174072265625" y="666.5">(from Helpers)</text></g></g><g transform="translate(-414,-158) scale(1,1)"><rect fill="#C0C0C0" stroke="none" x="1119" y="1047" width="109.4072265625" height="59" opacity="0.2"/></g><g transform="translate(-414,-158) scale(1,1)"><rect fill="#ffffff" stroke="none" x="1112" y="1040" width="109.4072265625" height="59"/></g><g transform="translate(-414,-158) scale(1,1)"><path fill="none" stroke="#000000" d="M 1112 1040 L 1221.4072265625 1040 L 1221.4072265625 1099 L 1112 1099 L 1112 1040 Z Z" stroke-miterlimit="10"/></g><g transform="translate(-414,-158) scale(1,1)"><path fill="none" stroke="#000000" d="M 1112 1080 L 1221.4072265625 1080" stroke-miterlimit="10"/></g><g transform="translate(-414,-158) scale(1,1)"><path fill="none" stroke="#000000" d="M 1112 1090 L 1221.4072265625 1090" stroke-miterlimit="10"/></g><g transform="translate(-414,-158) scale(1,1)"><g><path fill="none" stroke="none"/><text fill="#000000" stroke="none" font-family="Arial" font-size="13px" font-style="normal" font-weight="bold" text-decoration="none" x="1127.31640625" y="1059.5">VertexShader</text></g></g><g transform="translate(-414,-158) scale(1,1)"><g><path fill="none" stroke="none"/><text fill="#000000" stroke="none" font-family="Arial" font-size="13px" font-style="normal" font-weight="normal" text-decoration="none" x="1116.5" y="1074.5">(from Resources)</text></g></g><g transform="translate(-414,-158) scale(1,1)"><rect fill="#C0C0C0" stroke="none" x="1239" y="1047" width="112.3017578125" height="59" opacity="0.2"/></g><g transform="translate(-414,-158) scale(1,1)"><rect fill="#ffffff" stroke="none" x="1232" y="1040" width="112.3017578125" height="59"/></g><g transform="translate(-414,-158) scale(1,1)"><path fill="none" stroke="#000000" d="M 1232 1040 L 1344.3017578125 1040 L 1344.3017578125 1099 L 1232 1099 L 1232 1040 Z Z" stroke-miterlimit="10"/></g><g transform="translate(-414,-158) scale(1,1)"><path fill="none" stroke="#000000" d="M 1232 1080 L 1344.3017578125 1080" stroke-miterlimit="10"/></g><g transform="translate(-414,-158) scale(1,1)"><path fill="none" stroke="#000000" d="M 1232 1090 L 1344.3017578125 1090" stroke-miterlimit="10"/></g><g transform="translate(-414,-158) scale(1,1)"><g><path fill="none" stroke="none"/><text fill="#000000" stroke="none" font-family="Arial" font-size="13px" font-style="normal" font-weight="bold" text-decoration="none" x="1239.37548828125" y="1059.5">FragmentShader</text></g></g><g transform="translate(-414,-158) scale(1,1)"><g><path fill="none" stroke="none"/><text fill="#000000" stroke="none" font-family="Arial" font-size="13px" font-style="normal" font-weight="normal" text-decoration="none" x="1237.947265625" y="1074.5">(from Resources)</text></g></g><g transform="translate(-414,-158) scale(1,1)"><path fill="none" stroke="#000000" d="M 1200 1040 L 1200 947" stroke-miterlimit="10"/></g><g transform="translate(-414,-158) scale(1,1)"><path fill="#FFFFFF" stroke="none" d="M 1208.419035512032 967.3253497152483 L 1200 947 L 1191.580964487968 967.3253497152483"/></g><g transform="translate(-414,-158) scale(1,1)"><path fill="none" stroke="#000000" d="M 1208.419035512032 967.3253497152483 L 1200 947 L 1191.580964487968 967.3253497152483 L 1208.419035512032 967.3253497152483" stroke-miterlimit="10"/></g><g transform="translate(-414,-158) scale(1,1)"><path fill="none" stroke="#000000" d="M 1247 1040 L 1247 947" stroke-miterlimit="10"/></g><g transform="translate(-414,-158) scale(1,1)"><path fill="#FFFFFF" stroke="none" d="M 1255.419035512032 967.3253497152483 L 1247 947 L 1238.580964487968 967.3253497152483"/></g><g transform="translate(-414,-158) scale(1,1)"><path fill="none" stroke="#000000" d="M 1255.419035512032 967.3253497152483 L 1247 947 L 1238.580964487968 967.3253497152483 L 1255.419035512032 967.3253497152483" stroke-miterlimit="10"/></g><g transform="translate(-414,-158) scale(1,1)"><rect fill="#C0C0C0" stroke="none" x="1183" y="1255" width="109.4072265625" height="59" opacity="0.2"/></g><g transform="translate(-414,-158) scale(1,1)"><rect fill="#ffffff" stroke="none" x="1176" y="1248" width="109.4072265625" height="59"/></g><g transform="translate(-414,-158) scale(1,1)"><path fill="none" stroke="#000000" d="M 1176 1248 L 1285.4072265625 1248 L 1285.4072265625 1307 L 1176 1307 L 1176 1248 Z Z" stroke-miterlimit="10"/></g><g transform="translate(-414,-158) scale(1,1)"><path fill="none" stroke="#000000" d="M 1176 1288 L 1285.4072265625 1288" stroke-miterlimit="10"/></g><g transform="translate(-414,-158) scale(1,1)"><path fill="none" stroke="#000000" d="M 1176 1298 L 1285.4072265625 1298" stroke-miterlimit="10"/></g><g transform="translate(-414,-158) scale(1,1)"><g><path fill="none" stroke="none"/><text fill="#000000" stroke="none" font-family="Arial" font-size="13px" font-style="normal" font-weight="bold" text-decoration="none" x="1184.819580078125" y="1267.5">ShaderProgram</text></g></g><g transform="translate(-414,-158) scale(1,1)"><g><path fill="none" stroke="none"/><text fill="#000000" stroke="none" font-family="Arial" font-size="13px" font-style="normal" font-weight="normal" text-decoration="none" x="1180.5" y="1282.5">(from Resources)</text></g></g><g transform="translate(-414,-158) scale(1,1)"><path fill="none" stroke="#000000" d="M 1136 1099 L 1136 1264 L 1176 1264" stroke-miterlimit="10"/></g><g transform="translate(-414,-158) scale(1,1)"><path fill="#FFFFFF" stroke="none" d="M 1165.837325142376 1268.2095177560159 L 1176 1264 L 1165.837325142376 1259.7904822439841 L 1154 1264"/></g><g transform="translate(-414,-158) scale(1,1)"><path fill="none" stroke="#000000" d="M 1165.837325142376 1268.2095177560159 L 1176 1264 L 1165.837325142376 1259.7904822439841 L 1154 1264 L 1165.837325142376 1268.2095177560159" stroke-miterlimit="10"/></g><g transform="translate(-414,-158) scale(1,1)"><g><path fill="none" stroke="none"/><text fill="#000000" stroke="none" font-family="Arial" font-size="13px" font-style="normal" font-weight="normal" text-decoration="none" x="1119.5" y="1126.5">1</text></g></g><g transform="translate(-414,-158) scale(1,1)"><path fill="none" stroke="#000000" d="M 1320 1099 L 1320 1264 L 1285 1264" stroke-miterlimit="10"/></g><g transform="translate(-414,-158) scale(1,1)"><path fill="#FFFFFF" stroke="none" d="M 1295.162674857624 1259.7904822439841 L 1285 1264 L 1295.162674857624 1268.2095177560159 L 1307 1264"/></g><g transform="translate(-414,-158) scale(1,1)"><path fill="none" stroke="#000000" d="M 1295.162674857624 1259.7904822439841 L 1285 1264 L 1295.162674857624 1268.2095177560159 L 1307 1264 L 1295.162674857624 1259.7904822439841" stroke-miterlimit="10"/></g><g transform="translate(-414,-158) scale(1,1)"><g><path fill="none" stroke="none"/><text fill="#000000" stroke="none" font-family="Arial" font-size="13px" font-style="normal" font-weight="normal" text-decoration="none" x="1303.5" y="1126.5">1</text></g></g><g transform="translate(-414,-158) scale(1,1)"><path fill="none" stroke="#000000" d="M 1285 1285 L 1448 1285 L 1448 1163" stroke-miterlimit="10"/></g><g transform="translate(-414,-158) scale(1,1)"><path fill="#FFFFFF" stroke="none" d="M 1452.2095177560159 1173.162674857624 L 1448 1163 L 1443.7904822439841 1173.162674857624 L 1448 1185"/></g><g transform="translate(-414,-158) scale(1,1)"><path fill="none" stroke="#000000" d="M 1452.2095177560159 1173.162674857624 L 1448 1163 L 1443.7904822439841 1173.162674857624 L 1448 1185 L 1452.2095177560159 1173.162674857624" stroke-miterlimit="10"/></g><g transform="translate(-414,-158) scale(1,1)"><g><path fill="none" stroke="none"/><text fill="#000000" stroke="none" font-family="Arial" font-size="13px" font-style="normal" font-weight="normal" text-decoration="none" x="1295.5" y="1303.5">0..1</text></g></g><g transform="translate(-414,-158) scale(1,1)"><rect fill="#C0C0C0" stroke="none" x="527" y="679" width="89.90087890625" height="59" opacity="0.2"/></g><g transform="translate(-414,-158) scale(1,1)"><rect fill="#ffffff" stroke="none" x="520" y="672" width="89.90087890625" height="59"/></g><g transform="translate(-414,-158) scale(1,1)"><path fill="none" stroke="#000000" d="M 520 672 L 609.90087890625 672 L 609.90087890625 731 L 520 731 L 520 672 Z Z" stroke-miterlimit="10"/></g><g transform="translate(-414,-158) scale(1,1)"><path fill="none" stroke="#000000" d="M 520 712 L 609.90087890625 712" stroke-miterlimit="10"/></g><g transform="translate(-414,-158) scale(1,1)"><path fill="none" stroke="#000000" d="M 520 722 L 609.90087890625 722" stroke-miterlimit="10"/></g><g transform="translate(-414,-158) scale(1,1)"><g><path fill="none" stroke="none"/><text fill="#000000" stroke="none" font-family="Arial" font-size="13px" font-style="normal" font-weight="bold" text-decoration="none" x="550.85546875" y="691.5">Light</text></g></g><g transform="translate(-414,-158) scale(1,1)"><g><path fill="none" stroke="none"/><text fill="#000000" stroke="none" font-family="Arial" font-size="13px" font-style="normal" font-weight="normal" text-decoration="none" x="524.5" y="706.5">(from Entities)</text></g></g><g transform="translate(-414,-158) scale(1,1)"><rect fill="#C0C0C0" stroke="none" x="639" y="567" width="88" height="59" opacity="0.2"/></g><g transform="translate(-414,-158) scale(1,1)"><rect fill="#ffffff" stroke="none" x="632" y="560" width="88" height="59"/></g><g transform="translate(-414,-158) scale(1,1)"><path fill="none" stroke="#000000" d="M 632 560 L 720 560 L 720 619 L 632 619 L 632 560 Z Z" stroke-miterlimit="10"/></g><g transform="translate(-414,-158) scale(1,1)"><path fill="none" stroke="#000000" d="M 632 600 L 720 600" stroke-miterlimit="10"/></g><g transform="translate(-414,-158) scale(1,1)"><path fill="none" stroke="#000000" d="M 632 610 L 720 610" stroke-miterlimit="10"/></g><g transform="translate(-414,-158) scale(1,1)"><g><path fill="none" stroke="none"/><text fill="#000000" stroke="none" font-family="Arial" font-size="13px" font-style="normal" font-weight="bold" text-decoration="none" x="646.626220703125" y="579.5">Transform</text></g></g><g transform="translate(-414,-158) scale(1,1)"><g><path fill="none" stroke="none"/><text fill="#000000" stroke="none" font-family="Arial" font-size="13px" font-style="normal" font-weight="normal" text-decoration="none" x="644.226806640625" y="594.5">(from Utils)</text></g></g><g transform="translate(-414,-158) scale(1,1)"><path fill="none" stroke="#000000" d="M 632 589 L 568 589 L 568 672" stroke-miterlimit="10"/></g><g transform="translate(-414,-158) scale(1,1)"><path fill="#000000" stroke="none" d="M 563.790482243984 661.8373251423759 L 568 672 L 572.209517756016 661.8373251423759 L 568 650"/></g><g transform="translate(-414,-158) scale(1,1)"><path fill="none" stroke="#000000" d="M 563.790482243984 661.8373251423759 L 568 672 L 572.209517756016 661.8373251423759 L 568 650 L 563.790482243984 661.8373251423759" stroke-miterlimit="10"/></g><g transform="translate(-414,-158) scale(1,1)"><g><path fill="none" stroke="none"/><text fill="#000000" stroke="none" font-family="Arial" font-size="13px" font-style="normal" font-weight="normal" text-decoration="none" x="606.5" y="582.5">1</text></g></g><g transform="translate(-414,-158) scale(1,1)"><path fill="none" stroke="#000000" d="M 720 595 L 858 595" stroke-miterlimit="10"/></g><g transform="translate(-414,-158) scale(1,1)"><path fill="#000000" stroke="none" d="M 847.8373251423759 599.209517756016 L 858 595 L 847.8373251423758 590.790482243984 L 836 595"/></g><g transform="translate(-414,-158) scale(1,1)"><path fill="none" stroke="#000000" d="M 847.8373251423759 599.209517756016 L 858 595 L 847.8373251423758 590.790482243984 L 836 595 L 847.8373251423759 599.209517756016" stroke-miterlimit="10"/></g><g transform="translate(-414,-158) scale(1,1)"><g><path fill="none" stroke="none"/><text fill="#000000" stroke="none" font-family="Arial" font-size="13px" font-style="normal" font-weight="normal" text-decoration="none" x="727.5" y="580.5">1</text></g></g><g transform="translate(-414,-158) scale(1,1)"><rect fill="#C0C0C0" stroke="none" x="1591" y="1103" width="141.869140625" height="59" opacity="0.2"/></g><g transform="translate(-414,-158) scale(1,1)"><rect fill="#ffffff" stroke="none" x="1584" y="1096" width="141.869140625" height="59"/></g><g transform="translate(-414,-158) scale(1,1)"><path fill="none" stroke="#000000" d="M 1584 1096 L 1725.869140625 1096 L 1725.869140625 1155 L 1584 1155 L 1584 1096 Z Z" stroke-miterlimit="10"/></g><g transform="translate(-414,-158) scale(1,1)"><path fill="none" stroke="#000000" d="M 1584 1136 L 1725.869140625 1136" stroke-miterlimit="10"/></g><g transform="translate(-414,-158) scale(1,1)"><path fill="none" stroke="#000000" d="M 1584 1146 L 1725.869140625 1146" stroke-miterlimit="10"/></g><g transform="translate(-414,-158) scale(1,1)"><g><path fill="none" stroke="none"/><text fill="#000000" stroke="none" font-family="Arial" font-size="13px" font-style="normal" font-weight="bold" text-decoration="none" x="1594.5810546875" y="1115.5">AlignedBoundingBox</text></g></g><g transform="translate(-414,-158) scale(1,1)"><g><path fill="none" stroke="none"/><text fill="#000000" stroke="none" font-family="Arial" font-size="13px" font-style="normal" font-weight="normal" text-decoration="none" x="1623.161376953125" y="1130.5">(from Utils)</text></g></g><g transform="translate(-414,-158) scale(1,1)"><path fill="none" stroke="#000000" d="M 1704 1096 L 1704 971" stroke-miterlimit="10"/></g><g transform="translate(-414,-158) scale(1,1)"><path fill="#000000" stroke="none" d="M 1708.2095177560159 981.1626748576241 L 1704 971 L 1699.7904822439841 981.1626748576241 L 1704 993"/></g><g transform="translate(-414,-158) scale(1,1)"><path fill="none" stroke="#000000" d="M 1708.2095177560159 981.1626748576241 L 1704 971 L 1699.7904822439841 981.1626748576241 L 1704 993 L 1708.2095177560159 981.1626748576241" stroke-miterlimit="10"/></g><g transform="translate(-414,-158) scale(1,1)"><g><path fill="none" stroke="none"/><text fill="#000000" stroke="none" font-family="Arial" font-size="13px" font-style="normal" font-weight="normal" text-decoration="none" x="1712.5" y="1092.5">1</text></g></g><g transform="translate(-414,-158) scale(1,1)"><rect fill="#C0C0C0" stroke="none" x="1111" y="271" width="168.60546875" height="59" opacity="0.2"/></g><g transform="translate(-414,-158) scale(1,1)"><rect fill="#ffffff" stroke="none" x="1104" y="264" width="168.60546875" height="59"/></g><g transform="translate(-414,-158) scale(1,1)"><path fill="none" stroke="#000000" d="M 1104 264 L 1272.60546875 264 L 1272.60546875 323 L 1104 323 L 1104 264 Z Z" stroke-miterlimit="10"/></g><g transform="translate(-414,-158) scale(1,1)"><path fill="none" stroke="#000000" d="M 1104 304 L 1272.60546875 304" stroke-miterlimit="10"/></g><g transform="translate(-414,-158) scale(1,1)"><path fill="none" stroke="#000000" d="M 1104 314 L 1272.60546875 314" stroke-miterlimit="10"/></g><g transform="translate(-414,-158) scale(1,1)"><g><path fill="none" stroke="none"/><text fill="#000000" stroke="none" font-family="Arial" font-size="13px" font-style="normal" font-weight="bold" text-decoration="none" x="1114.61279296875" y="283.5">CommandFrustumCulling</text></g></g><g transform="translate(-414,-158) scale(1,1)"><g><path fill="none" stroke="none"/><text fill="#000000" stroke="none" font-family="Arial" font-size="13px" font-style="normal" font-weight="normal" text-decoration="none" x="1135.9345703125" y="298.5">(from Commands)</text></g></g><g transform="translate(-414,-158) scale(1,1)"><path fill="none" stroke="#000000" d="M 1189 323 L 1189 416" stroke-miterlimit="10"/></g><g transform="translate(-414,-158) scale(1,1)"><rect fill="#C0C0C0" stroke="none" x="647" y="679" width="89.90087890625" height="59" opacity="0.2"/></g><g transform="translate(-414,-158) scale(1,1)"><rect fill="#ffffff" stroke="none" x="640" y="672" width="89.90087890625" height="59"/></g><g transform="translate(-414,-158) scale(1,1)"><path fill="none" stroke="#000000" d="M 640 672 L 729.90087890625 672 L 729.90087890625 731 L 640 731 L 640 672 Z Z" stroke-miterlimit="10"/></g><g transform="translate(-414,-158) scale(1,1)"><path fill="none" stroke="#000000" d="M 640 712 L 729.90087890625 712" stroke-miterlimit="10"/></g><g transform="translate(-414,-158) scale(1,1)"><path fill="none" stroke="#000000" d="M 640 722 L 729.90087890625 722" stroke-miterlimit="10"/></g><g transform="translate(-414,-158) scale(1,1)"><g><path fill="none" stroke="none"/><text fill="#000000" stroke="none" font-family="Arial" font-size="13px" font-style="normal" font-weight="bold" text-decoration="none" x="661.832275390625" y="691.5">Camera</text></g></g><g transform="translate(-414,-158) scale(1,1)"><g><path fill="none" stroke="none"/><text fill="#000000" stroke="none" font-family="Arial" font-size="13px" font-style="normal" font-weight="normal" text-decoration="none" x="644.5" y="706.5">(from Entities)</text></g></g><g transform="translate(-414,-158) scale(1,1)"><path fill="none" stroke="#000000" d="M 686 619 L 686 672" stroke-miterlimit="10"/></g><g transform="translate(-414,-158) scale(1,1)"><path fill="#000000" stroke="none" d="M 681.790482243984 661.8373251423759 L 686 672 L 690.209517756016 661.8373251423759 L 686 650"/></g><g transform="translate(-414,-158) scale(1,1)"><path fill="none" stroke="#000000" d="M 681.790482243984 661.8373251423759 L 686 672 L 690.209517756016 661.8373251423759 L 686 650 L 681.790482243984 661.8373251423759" stroke-miterlimit="10"/></g><g transform="translate(-414,-158) scale(1,1)"><g><path fill="none" stroke="none"/><text fill="#000000" stroke="none" font-family="Arial" font-size="13px" font-style="normal" font-weight="normal" text-decoration="none" x="695.5" y="651.5">1</text></g></g><g transform="translate(-414,-158) scale(1,1)"><rect fill="#C0C0C0" stroke="none" x="543" y="1087" width="88.21875" height="59" opacity="0.2"/></g><g transform="translate(-414,-158) scale(1,1)"><rect fill="#ffffff" stroke="none" x="536" y="1080" width="88.21875" height="59"/></g><g transform="translate(-414,-158) scale(1,1)"><path fill="none" stroke="#000000" d="M 536 1080 L 624.21875 1080 L 624.21875 1139 L 536 1139 L 536 1080 Z Z" stroke-miterlimit="10"/></g><g transform="translate(-414,-158) scale(1,1)"><path fill="none" stroke="#000000" d="M 536 1120 L 624.21875 1120" stroke-miterlimit="10"/></g><g transform="translate(-414,-158) scale(1,1)"><path fill="none" stroke="#000000" d="M 536 1130 L 624.21875 1130" stroke-miterlimit="10"/></g><g transform="translate(-414,-158) scale(1,1)"><g><path fill="none" stroke="none"/><text fill="#000000" stroke="none" font-family="Arial" font-size="13px" font-style="normal" font-weight="bold" text-decoration="none" x="544.10546875" y="1099.5">FrameBuffer</text></g></g><g transform="translate(-414,-158) scale(1,1)"><g><path fill="none" stroke="none"/><text fill="#000000" stroke="none" font-family="Arial" font-size="13px" font-style="normal" font-weight="normal" text-decoration="none" x="540.5" y="1114.5">(from Buffers)</text></g></g><g transform="translate(-414,-158) scale(1,1)"><path fill="none" stroke="#000000" d="M 624 1112 L 716 1112 L 716 959" stroke-miterlimit="10"/></g><g transform="translate(-414,-158) scale(1,1)"><path fill="none" stroke="#000000" d="M 1253 661 L 1336 661" stroke-miterlimit="10"/></g><g transform="translate(-414,-158) scale(1,1)"><path fill="#000000" stroke="none" d="M 1325.837325142376 665.209517756016 L 1336 661 L 1325.837325142376 656.790482243984 L 1314 661"/></g><g transform="translate(-414,-158) scale(1,1)"><path fill="none" stroke="#000000" d="M 1325.837325142376 665.209517756016 L 1336 661 L 1325.837325142376 656.790482243984 L 1314 661 L 1325.837325142376 665.209517756016" stroke-miterlimit="10"/></g><g transform="translate(-414,-158) scale(1,1)"><g><path fill="none" stroke="none"/><text fill="#000000" stroke="none" font-family="Arial" font-size="13px" font-style="normal" font-weight="normal" text-decoration="none" x="1270.5" y="679.5">1</text></g></g><g transform="translate(-414,-158) scale(1,1)"><rect fill="#C0C0C0" stroke="none" x="1079" y="799" width="123.84814453125" height="59" opacity="0.2"/></g><g transform="translate(-414,-158) scale(1,1)"><rect fill="#ffffff" stroke="none" x="1072" y="792" width="123.84814453125" height="59"/></g><g transform="translate(-414,-158) scale(1,1)"><path fill="none" stroke="#000000" d="M 1072 792 L 1195.84814453125 792 L 1195.84814453125 851 L 1072 851 L 1072 792 Z Z" stroke-miterlimit="10"/></g><g transform="translate(-414,-158) scale(1,1)"><path fill="none" stroke="#000000" d="M 1072 832 L 1195.84814453125 832" stroke-miterlimit="10"/></g><g transform="translate(-414,-158) scale(1,1)"><path fill="none" stroke="#000000" d="M 1072 842 L 1195.84814453125 842" stroke-miterlimit="10"/></g><g transform="translate(-414,-158) scale(1,1)"><g><path fill="none" stroke="none"/><text fill="#000000" stroke="none" font-family="Arial" font-size="13px" font-style="normal" font-weight="bold" text-decoration="none" x="1081.552734375" y="811.5">UniformDescriptor</text></g></g><g transform="translate(-414,-158) scale(1,1)"><g><path fill="none" stroke="none"/><text fill="#000000" stroke="none" font-family="Arial" font-size="13px" font-style="normal" font-weight="normal" text-decoration="none" x="1102.15087890625" y="826.5">(from Utils)</text></g></g><g transform="translate(-414,-158) scale(1,1)"><rect fill="#C0C0C0" stroke="none" x="1495" y="1279" width="87.00634765625" height="59" opacity="0.2"/></g><g transform="translate(-414,-158) scale(1,1)"><rect fill="#ffffff" stroke="none" x="1488" y="1272" width="87.00634765625" height="59"/></g><g transform="translate(-414,-158) scale(1,1)"><path fill="none" stroke="#000000" d="M 1488 1272 L 1575.00634765625 1272 L 1575.00634765625 1331 L 1488 1331 L 1488 1272 Z Z" stroke-miterlimit="10"/></g><g transform="translate(-414,-158) scale(1,1)"><path fill="none" stroke="#000000" d="M 1488 1312 L 1575.00634765625 1312" stroke-miterlimit="10"/></g><g transform="translate(-414,-158) scale(1,1)"><path fill="none" stroke="#000000" d="M 1488 1322 L 1575.00634765625 1322" stroke-miterlimit="10"/></g><g transform="translate(-414,-158) scale(1,1)"><g><path fill="none" stroke="none"/><text fill="#000000" stroke="none" font-family="Arial" font-size="13px" font-style="normal" font-weight="bold" text-decoration="none" x="1495.02001953125" y="1291.5">UniformData</text></g></g><g transform="translate(-414,-158) scale(1,1)"><g><path fill="none" stroke="none"/><text fill="#000000" stroke="none" font-family="Arial" font-size="13px" font-style="normal" font-weight="normal" text-decoration="none" x="1499.72998046875" y="1306.5">(from Utils)</text></g></g><g transform="translate(-414,-158) scale(1,1)"><path fill="none" stroke="#000000" d="M 1520 1272 L 1520 1163" stroke-miterlimit="10"/></g><g transform="translate(-414,-158) scale(1,1)"><path fill="#000000" stroke="none" d="M 1524.2095177560159 1173.162674857624 L 1520 1163 L 1515.7904822439841 1173.162674857624 L 1520 1185"/></g><g transform="translate(-414,-158) scale(1,1)"><path fill="none" stroke="#000000" d="M 1524.2095177560159 1173.162674857624 L 1520 1163 L 1515.7904822439841 1173.162674857624 L 1520 1185 L 1524.2095177560159 1173.162674857624" stroke-miterlimit="10"/></g><g transform="translate(-414,-158) scale(1,1)"><g><path fill="none" stroke="none"/><text fill="#000000" stroke="none" font-family="Arial" font-size="13px" font-style="normal" font-weight="normal" text-decoration="none" x="1521.74365234375" y="1256.5">0..*</text></g></g><g transform="translate(-414,-158) scale(1,1)"><path fill="none" stroke="#000000" d="M 1120 851 L 1120 920 L 1168 920" stroke-miterlimit="10"/></g><g transform="translate(-414,-158) scale(1,1)"><path fill="#000000" stroke="none" d="M 1157.837325142376 924.209517756016 L 1168 920 L 1157.837325142376 915.790482243984 L 1146 920"/></g><g transform="translate(-414,-158) scale(1,1)"><path fill="none" stroke="#000000" d="M 1157.837325142376 924.209517756016 L 1168 920 L 1157.837325142376 915.790482243984 L 1146 920 L 1157.837325142376 924.209517756016" stroke-miterlimit="10"/></g><g transform="translate(-414,-158) scale(1,1)"><g><path fill="none" stroke="none"/><text fill="#000000" stroke="none" font-family="Arial" font-size="13px" font-style="normal" font-weight="normal" text-decoration="none" x="1094.74365234375" y="868.5">0..*</text></g></g><g transform="translate(-414,-158) scale(1,1)"><rect fill="#C0C0C0" stroke="none" x="1767" y="1103" width="161.3818359375" height="59" opacity="0.2"/></g><g transform="translate(-414,-158) scale(1,1)"><rect fill="#ffffff" stroke="none" x="1760" y="1096" width="161.3818359375" height="59"/></g><g transform="translate(-414,-158) scale(1,1)"><path fill="none" stroke="#000000" d="M 1760 1096 L 1921.3818359375 1096 L 1921.3818359375 1155 L 1760 1155 L 1760 1096 Z Z" stroke-miterlimit="10"/></g><g transform="translate(-414,-158) scale(1,1)"><path fill="none" stroke="#000000" d="M 1760 1136 L 1921.3818359375 1136" stroke-miterlimit="10"/></g><g transform="translate(-414,-158) scale(1,1)"><path fill="none" stroke="#000000" d="M 1760 1146 L 1921.3818359375 1146" stroke-miterlimit="10"/></g><g transform="translate(-414,-158) scale(1,1)"><g><path fill="none" stroke="none"/><text fill="#000000" stroke="none" font-family="Arial" font-size="13px" font-style="normal" font-weight="bold" text-decoration="none" x="1770.577880859375" y="1115.5">AlignedBoundingSphere</text></g></g><g transform="translate(-414,-158) scale(1,1)"><g><path fill="none" stroke="none"/><text fill="#000000" stroke="none" font-family="Arial" font-size="13px" font-style="normal" font-weight="normal" text-decoration="none" x="1808.917724609375" y="1130.5">(from Utils)</text></g></g><g transform="translate(-414,-158) scale(1,1)"><path fill="none" stroke="#000000" d="M 1808 1096 L 1808 1056 L 1720 1056 L 1720 971" stroke-miterlimit="10"/></g><g transform="translate(-414,-158) scale(1,1)"><path fill="#000000" stroke="none" d="M 1724.2095177560159 981.1626748576241 L 1720 971 L 1715.7904822439841 981.1626748576241 L 1720 993"/></g><g transform="translate(-414,-158) scale(1,1)"><path fill="none" stroke="#000000" d="M 1724.2095177560159 981.1626748576241 L 1720 971 L 1715.7904822439841 981.1626748576241 L 1720 993 L 1724.2095177560159 981.1626748576241" stroke-miterlimit="10"/></g><g transform="translate(-414,-158) scale(1,1)"><g><path fill="none" stroke="none"/><text fill="#000000" stroke="none" font-family="Arial" font-size="13px" font-style="normal" font-weight="normal" text-decoration="none" x="1816.5" y="1092.5">1</text></g></g><g transform="translate(-414,-158) scale(1,1)"><rect fill="#C0C0C0" stroke="none" x="1871" y="639" width="110.87353515625" height="59" opacity="0.2"/></g><g transform="translate(-414,-158) scale(1,1)"><rect fill="#ffffff" stroke="none" x="1864" y="632" width="110.87353515625" height="59"/></g><g transform="translate(-414,-158) scale(1,1)"><path fill="none" stroke="#000000" d="M 1864 632 L 1974.87353515625 632 L 1974.87353515625 691 L 1864 691 L 1864 632 Z Z" stroke-miterlimit="10"/></g><g transform="translate(-414,-158) scale(1,1)"><path fill="none" stroke="#000000" d="M 1864 672 L 1974.87353515625 672" stroke-miterlimit="10"/></g><g transform="translate(-414,-158) scale(1,1)"><path fill="none" stroke="#000000" d="M 1864 682 L 1974.87353515625 682" stroke-miterlimit="10"/></g><g transform="translate(-414,-158) scale(1,1)"><g><path fill="none" stroke="none"/><text fill="#000000" stroke="none" font-family="Arial" font-size="13px" font-style="normal" font-weight="bold" text-decoration="none" x="1872.84814453125" y="651.5">PrimitiveFactory</text></g></g><g transform="translate(-414,-158) scale(1,1)"><g><path fill="none" stroke="none"/><text fill="#000000" stroke="none" font-family="Arial" font-size="13px" font-style="normal" font-weight="normal" text-decoration="none" x="1873.57177734375" y="666.5">(from Factories)</text></g></g><g transform="translate(-414,-158) scale(1,1)"><path fill="none" stroke="#000000" d="M 1920 632 L 1920 439 L 1597.864990234375 439" stroke-miterlimit="10"/></g><g transform="translate(-414,-158) scale(1,1)"><path fill="none" stroke="#000000" d="M 520 696 L 488 696 L 488 544 L 816 544 L 816 464 L 880 464" stroke-miterlimit="10"/></g><g transform="translate(-414,-158) scale(1,1)"><path fill="#FFFFFF" stroke="none" d="M 869.8373251423759 468.209517756016 L 880 464 L 869.8373251423758 459.790482243984 L 858 464"/></g><g transform="translate(-414,-158) scale(1,1)"><path fill="none" stroke="#000000" d="M 869.8373251423759 468.209517756016 L 880 464 L 869.8373251423758 459.790482243984 L 858 464 L 869.8373251423759 468.209517756016" stroke-miterlimit="10"/></g><g transform="translate(-414,-158) scale(1,1)"><g><path fill="none" stroke="none"/><text fill="#000000" stroke="none" font-family="Arial" font-size="13px" font-style="normal" font-weight="normal" text-decoration="none" x="487.74365234375" y="716.5">0..*</text></g></g><g transform="translate(-414,-158) scale(1,1)"><path fill="none" stroke="#000000" d="M 730 696 L 816 696 L 816 552 L 896 552 L 896 475" stroke-miterlimit="10"/></g><g transform="translate(-414,-158) scale(1,1)"><path fill="#FFFFFF" stroke="none" d="M 900.209517756016 485.16267485762415 L 896 475 L 891.790482243984 485.16267485762415 L 896 497"/></g><g transform="translate(-414,-158) scale(1,1)"><path fill="none" stroke="#000000" d="M 900.209517756016 485.16267485762415 L 896 475 L 891.790482243984 485.16267485762415 L 896 497 L 900.209517756016 485.16267485762415" stroke-miterlimit="10"/></g><g transform="translate(-414,-158) scale(1,1)"><g><path fill="none" stroke="none"/><text fill="#000000" stroke="none" font-family="Arial" font-size="13px" font-style="normal" font-weight="normal" text-decoration="none" x="740.5" y="714.5">0..1</text></g></g><g transform="translate(-414,-158) scale(1,1)"><rect fill="#C0C0C0" stroke="none" x="767" y="855" width="72.54638671875" height="59" opacity="0.2"/></g><g transform="translate(-414,-158) scale(1,1)"><rect fill="#ffffff" stroke="none" x="760" y="848" width="72.54638671875" height="59"/></g><g transform="translate(-414,-158) scale(1,1)"><path fill="none" stroke="#000000" d="M 760 848 L 832.54638671875 848 L 832.54638671875 907 L 760 907 L 760 848 Z Z" stroke-miterlimit="10"/></g><g transform="translate(-414,-158) scale(1,1)"><path fill="none" stroke="#000000" d="M 760 888 L 832.54638671875 888" stroke-miterlimit="10"/></g><g transform="translate(-414,-158) scale(1,1)"><path fill="none" stroke="#000000" d="M 760 898 L 832.54638671875 898" stroke-miterlimit="10"/></g><g transform="translate(-414,-158) scale(1,1)"><g><path fill="none" stroke="none"/><text fill="#000000" stroke="none" font-family="Arial" font-size="13px" font-style="normal" font-weight="bold" text-decoration="none" x="777.845947265625" y="867.5">Vertex</text></g></g><g transform="translate(-414,-158) scale(1,1)"><g><path fill="none" stroke="none"/><text fill="#000000" stroke="none" font-family="Arial" font-size="13px" font-style="normal" font-weight="normal" text-decoration="none" x="764.5" y="882.5">(from Utils)</text></g></g><g transform="translate(-414,-158) scale(1,1)"><rect fill="#C0C0C0" stroke="none" x="759" y="287" width="97.86083984375" height="59" opacity="0.2"/></g><g transform="translate(-414,-158) scale(1,1)"><rect fill="#ffffff" stroke="none" x="752" y="280" width="97.86083984375" height="59"/></g><g transform="translate(-414,-158) scale(1,1)"><path fill="none" stroke="#000000" d="M 752 280 L 849.86083984375 280 L 849.86083984375 339 L 752 339 L 752 280 Z Z" stroke-miterlimit="10"/></g><g transform="translate(-414,-158) scale(1,1)"><path fill="none" stroke="#000000" d="M 752 320 L 849.86083984375 320" stroke-miterlimit="10"/></g><g transform="translate(-414,-158) scale(1,1)"><path fill="none" stroke="#000000" d="M 752 330 L 849.86083984375 330" stroke-miterlimit="10"/></g><g transform="translate(-414,-158) scale(1,1)"><g><path fill="none" stroke="none"/><text fill="#000000" stroke="none" font-family="Arial" font-size="13px" font-style="normal" font-weight="bold" text-decoration="none" x="760.11181640625" y="299.5">DriverSettings</text></g></g><g transform="translate(-414,-158) scale(1,1)"><g><path fill="none" stroke="none"/><text fill="#000000" stroke="none" font-family="Arial" font-size="13px" font-style="normal" font-weight="normal" text-decoration="none" x="758.30908203125" y="314.5">(from Settings)</text></g></g></g></svg>